<svg width="48" height="48" viewBox="0 0 48 48" fill="none" xmlns="http://www.w3.org/2000/svg">
<path d="M12.0005 0C11.0536 0 10.2861 0.767511 10.2861 1.71432V5.14285H13.7147V1.71432C13.7147 0.767511 12.9472 0 12.0005 0Z" fill="#F5F5FC"/>
<path d="M36.0005 0C35.0536 0 34.2861 0.767511 34.2861 1.71432V5.14285H37.7147V1.71432C37.7148 0.767511 36.9473 0 36.0005 0Z" fill="#F5F5FC"/>
<path d="M42.8571 5.14282H37.7143V12C37.7143 12.9468 36.9468 13.7143 36 13.7143C35.0532 13.7143 34.2857 12.9468 34.2857 12V5.14282H13.7142V12C13.7142 12.9468 12.9467 13.7143 11.9999 13.7143C11.0531 13.7143 10.2856 12.9468 10.2856 12V5.14282H5.14285C2.30253 5.14282 0 7.44535 0 10.2857V42.8571C0 45.6974 2.30253 48 5.14285 48H42.8571C45.6975 48 48 45.6974 48 42.8571V10.2857C48 7.44535 45.6975 5.14282 42.8571 5.14282ZM44.5714 42.8571C44.5714 43.8039 43.8039 44.5714 42.857 44.5714H5.14285C4.19605 44.5714 3.42854 43.8039 3.42854 42.8571V20.5714H44.5714V42.8571Z" fill="#F5F5FC"/>
<path d="M13.7141 24H10.2856C9.3388 24 8.57129 24.7675 8.57129 25.7143C8.57129 26.6611 9.3388 27.4286 10.2856 27.4286H13.7141C14.6609 27.4286 15.4285 26.6611 15.4285 25.7143C15.4285 24.7675 14.6609 24 13.7141 24Z" fill="#F5F5FC"/>
<path d="M25.7141 24H22.2856C21.3388 24 20.5713 24.7675 20.5713 25.7143C20.5713 26.6611 21.3388 27.4286 22.2856 27.4286H25.7141C26.661 27.4286 27.4285 26.6611 27.4285 25.7143C27.4285 24.7675 26.661 24 25.7141 24Z" fill="#F5F5FC"/>
<path d="M37.7141 24H34.2856C33.3388 24 32.5713 24.7675 32.5713 25.7143C32.5713 26.6611 33.3388 27.4286 34.2856 27.4286H37.7141C38.661 27.4286 39.4285 26.6611 39.4285 25.7143C39.4285 24.7675 38.6609 24 37.7141 24Z" fill="#F5F5FC"/>
<path d="M13.7141 30.8572H10.2856C9.3388 30.8572 8.57129 31.6247 8.57129 32.5715C8.57129 33.5183 9.3388 34.2858 10.2856 34.2858H13.7141C14.6609 34.2858 15.4285 33.5183 15.4285 32.5715C15.4285 31.6247 14.6609 30.8572 13.7141 30.8572Z" fill="#F5F5FC"/>
<path d="M25.7141 30.8572H22.2856C21.3388 30.8572 20.5713 31.6247 20.5713 32.5715C20.5713 33.5183 21.3388 34.2858 22.2856 34.2858H25.7141C26.661 34.2858 27.4285 33.5183 27.4285 32.5715C27.4285 31.6247 26.661 30.8572 25.7141 30.8572Z" fill="#F5F5FC"/>
<path d="M37.7141 30.8572H34.2856C33.3388 30.8572 32.5713 31.6247 32.5713 32.5715C32.5713 33.5183 33.3388 34.2858 34.2856 34.2858H37.7141C38.661 34.2858 39.4285 33.5183 39.4285 32.5715C39.4284 31.6247 38.6609 30.8572 37.7141 30.8572Z" fill="#F5F5FC"/>
<path d="M13.7141 37.7141H10.2856C9.3388 37.7141 8.57129 38.4816 8.57129 39.4284C8.57129 40.3752 9.3388 41.1426 10.2856 41.1426H13.7141C14.6609 41.1426 15.4285 40.3751 15.4285 39.4283C15.4285 38.4815 14.6609 37.7141 13.7141 37.7141Z" fill="#F5F5FC"/>
<path d="M25.7141 37.7141H22.2856C21.3388 37.7141 20.5713 38.4816 20.5713 39.4284C20.5713 40.3752 21.3388 41.1427 22.2856 41.1427H25.7141C26.661 41.1427 27.4285 40.3752 27.4285 39.4284C27.4285 38.4816 26.661 37.7141 25.7141 37.7141Z" fill="#F5F5FC"/>
<path d="M37.7141 37.7141H34.2856C33.3388 37.7141 32.5713 38.4816 32.5713 39.4284C32.5713 40.3752 33.3388 41.1427 34.2856 41.1427H37.7141C38.661 41.1427 39.4285 40.3752 39.4285 39.4284C39.4285 38.4816 38.6609 37.7141 37.7141 37.7141Z" fill="#F5F5FC"/>
</svg>
