<svg width="190" height="22" viewBox="0 0 190 22" fill="none" xmlns="http://www.w3.org/2000/svg">
<path d="M14.91 17.01H6.57L5.19 21H0.78L8.31 0.0299982H13.2L20.73 21H16.29L14.91 17.01ZM13.77 13.65L10.74 4.89L7.71 13.65H13.77ZM46.5846 4.38L41.7246 21H37.1946L34.1646 9.39L31.1346 21H26.5746L21.6846 4.38H25.9446L28.8846 17.04L32.0646 4.38H36.5046L39.6246 17.01L42.5646 4.38H46.5846ZM71.8971 4.38L67.0371 21H62.5071L59.4771 9.39L56.4471 21H51.8871L46.9971 4.38H51.2571L54.1971 17.04L57.3771 4.38H61.8171L64.9371 17.01L67.8771 4.38H71.8971ZM97.2096 4.38L92.3496 21H87.8196L84.7896 9.39L81.7596 21H77.1996L72.3096 4.38H76.5696L79.5096 17.04L82.6896 4.38H87.1296L90.2496 17.01L93.1896 4.38H97.2096ZM186.772 21.21C186.012 21.21 185.382 20.98 184.882 20.52C184.402 20.04 184.162 19.45 184.162 18.75C184.162 18.05 184.402 17.47 184.882 17.01C185.382 16.53 186.012 16.29 186.772 16.29C187.512 16.29 188.122 16.53 188.602 17.01C189.082 17.47 189.322 18.05 189.322 18.75C189.322 19.45 189.082 20.04 188.602 20.52C188.122 20.98 187.512 21.21 186.772 21.21Z" fill="#4E42D9"/>
<path d="M105.842 21.27C104.482 21.27 103.262 21.03 102.182 20.55C101.102 20.05 100.242 19.38 99.6021 18.54C98.9821 17.7 98.6421 16.77 98.5821 15.75H102.812C102.892 16.39 103.202 16.92 103.742 17.34C104.302 17.76 104.992 17.97 105.812 17.97C106.612 17.97 107.232 17.81 107.672 17.49C108.132 17.17 108.362 16.76 108.362 16.26C108.362 15.72 108.082 15.32 107.522 15.06C106.982 14.78 106.112 14.48 104.912 14.16C103.672 13.86 102.652 13.55 101.852 13.23C101.072 12.91 100.392 12.42 99.8121 11.76C99.2521 11.1 98.9721 10.21 98.9721 9.09C98.9721 8.17 99.2321 7.33 99.7521 6.57C100.292 5.81 101.052 5.21 102.032 4.77C103.032 4.33 104.202 4.11 105.542 4.11C107.522 4.11 109.102 4.61 110.282 5.61C111.462 6.59 112.112 7.92 112.232 9.6H108.212C108.152 8.94 107.872 8.42 107.372 8.04C106.892 7.64 106.242 7.44 105.422 7.44C104.662 7.44 104.072 7.58 103.652 7.86C103.252 8.14 103.052 8.53 103.052 9.03C103.052 9.59 103.332 10.02 103.892 10.32C104.452 10.6 105.322 10.89 106.502 11.19C107.702 11.49 108.692 11.8 109.472 12.12C110.252 12.44 110.922 12.94 111.482 13.62C112.062 14.28 112.362 15.16 112.382 16.26C112.382 17.22 112.112 18.08 111.572 18.84C111.052 19.6 110.292 20.2 109.292 20.64C108.312 21.06 107.162 21.27 105.842 21.27ZM123.21 21.27C121.61 21.27 120.17 20.92 118.89 20.22C117.61 19.5 116.6 18.49 115.86 17.19C115.14 15.89 114.78 14.39 114.78 12.69C114.78 10.99 115.15 9.49 115.89 8.19C116.65 6.89 117.68 5.89 118.98 5.19C120.28 4.47 121.73 4.11 123.33 4.11C124.93 4.11 126.38 4.47 127.68 5.19C128.98 5.89 130 6.89 130.74 8.19C131.5 9.49 131.88 10.99 131.88 12.69C131.88 14.39 131.49 15.89 130.71 17.19C129.95 18.49 128.91 19.5 127.59 20.22C126.29 20.92 124.83 21.27 123.21 21.27ZM123.21 17.61C123.97 17.61 124.68 17.43 125.34 17.07C126.02 16.69 126.56 16.13 126.96 15.39C127.36 14.65 127.56 13.75 127.56 12.69C127.56 11.11 127.14 9.9 126.3 9.06C125.48 8.2 124.47 7.77 123.27 7.77C122.07 7.77 121.06 8.2 120.24 9.06C119.44 9.9 119.04 11.11 119.04 12.69C119.04 14.27 119.43 15.49 120.21 16.35C121.01 17.19 122.01 17.61 123.21 17.61ZM155.601 4.14C157.641 4.14 159.281 4.77 160.521 6.03C161.781 7.27 162.411 9.01 162.411 11.25V21H158.211V11.82C158.211 10.52 157.881 9.53 157.221 8.85C156.561 8.15 155.661 7.8 154.521 7.8C153.381 7.8 152.471 8.15 151.791 8.85C151.131 9.53 150.801 10.52 150.801 11.82V21H146.601V11.82C146.601 10.52 146.271 9.53 145.611 8.85C144.951 8.15 144.051 7.8 142.911 7.8C141.751 7.8 140.831 8.15 140.151 8.85C139.491 9.53 139.161 10.52 139.161 11.82V21H134.961V4.38H139.161V6.39C139.701 5.69 140.391 5.14 141.231 4.74C142.091 4.34 143.031 4.14 144.051 4.14C145.351 4.14 146.511 4.42 147.531 4.98C148.551 5.52 149.341 6.3 149.901 7.32C150.441 6.36 151.221 5.59 152.241 5.01C153.281 4.43 154.401 4.14 155.601 4.14ZM181.846 12.33C181.846 12.93 181.806 13.47 181.726 13.95H169.576C169.676 15.15 170.096 16.09 170.836 16.77C171.576 17.45 172.486 17.79 173.566 17.79C175.126 17.79 176.236 17.12 176.896 15.78H181.426C180.946 17.38 180.026 18.7 178.666 19.74C177.306 20.76 175.636 21.27 173.656 21.27C172.056 21.27 170.616 20.92 169.336 20.22C168.076 19.5 167.086 18.49 166.366 17.19C165.666 15.89 165.316 14.39 165.316 12.69C165.316 10.97 165.666 9.46 166.366 8.16C167.066 6.86 168.046 5.86 169.306 5.16C170.566 4.46 172.016 4.11 173.656 4.11C175.236 4.11 176.646 4.45 177.886 5.13C179.146 5.81 180.116 6.78 180.796 8.04C181.496 9.28 181.846 10.71 181.846 12.33ZM177.496 11.13C177.476 10.05 177.086 9.19 176.326 8.55C175.566 7.89 174.636 7.56 173.536 7.56C172.496 7.56 171.616 7.88 170.896 8.52C170.196 9.14 169.766 10.01 169.606 11.13H177.496Z" fill="#363636"/>
</svg>
